<mxfile host="app.diagrams.net" modified="2023-09-27T07:32:50.669Z" agent="Mozilla/5.0 (Macintosh; Intel Mac OS X 11_2_3) AppleWebKit/537.36 (KHTML, like Gecko) Chrome/88.0.4324.192 Safari/537.36" etag="SGKDj4pdWIAzXoN5lDoB" version="21.6.1" type="github">
  <diagram name="第 1 页" id="clgrEV_Meurep0f_5QgY">
    <mxGraphModel dx="812" dy="443" grid="0" gridSize="10" guides="1" tooltips="1" connect="1" arrows="1" fold="1" page="1" pageScale="1" pageWidth="827" pageHeight="1169" math="0" shadow="0">
      <root>
        <mxCell id="0" />
        <mxCell id="1" parent="0" />
        <mxCell id="5OsI7P8gQhSzynUjOokk-3" value="" style="edgeStyle=orthogonalEdgeStyle;rounded=0;orthogonalLoop=1;jettySize=auto;html=1;" edge="1" parent="1" source="5OsI7P8gQhSzynUjOokk-1" target="5OsI7P8gQhSzynUjOokk-2">
          <mxGeometry relative="1" as="geometry" />
        </mxCell>
        <mxCell id="5OsI7P8gQhSzynUjOokk-1" value="&lt;font style=&quot;font-size: 14px;&quot;&gt;创意&lt;/font&gt;" style="rounded=1;whiteSpace=wrap;html=1;fillColor=#ffe6cc;strokeColor=#d79b00;" vertex="1" parent="1">
          <mxGeometry x="150" y="263" width="120" height="60" as="geometry" />
        </mxCell>
        <mxCell id="5OsI7P8gQhSzynUjOokk-9" value="" style="edgeStyle=orthogonalEdgeStyle;rounded=0;orthogonalLoop=1;jettySize=auto;html=1;" edge="1" parent="1" source="5OsI7P8gQhSzynUjOokk-2" target="5OsI7P8gQhSzynUjOokk-8">
          <mxGeometry relative="1" as="geometry" />
        </mxCell>
        <mxCell id="5OsI7P8gQhSzynUjOokk-2" value="&lt;span style=&quot;font-size: 14px;&quot;&gt;文心百亿模型&lt;br&gt;推理&lt;/span&gt;" style="rounded=1;whiteSpace=wrap;html=1;fillColor=#dae8fc;strokeColor=#6c8ebf;" vertex="1" parent="1">
          <mxGeometry x="350" y="263" width="120" height="60" as="geometry" />
        </mxCell>
        <mxCell id="5OsI7P8gQhSzynUjOokk-6" value="" style="edgeStyle=orthogonalEdgeStyle;rounded=0;orthogonalLoop=1;jettySize=auto;html=1;" edge="1" parent="1" source="5OsI7P8gQhSzynUjOokk-4" target="5OsI7P8gQhSzynUjOokk-5">
          <mxGeometry relative="1" as="geometry" />
        </mxCell>
        <mxCell id="5OsI7P8gQhSzynUjOokk-4" value="&lt;font style=&quot;font-size: 14px;&quot;&gt;GPT4&lt;br&gt;+&lt;br&gt;人工修正&lt;/font&gt;" style="rounded=1;whiteSpace=wrap;html=1;fillColor=#dae8fc;strokeColor=#6c8ebf;" vertex="1" parent="1">
          <mxGeometry x="350" y="43" width="120" height="60" as="geometry" />
        </mxCell>
        <mxCell id="5OsI7P8gQhSzynUjOokk-7" value="" style="edgeStyle=orthogonalEdgeStyle;rounded=0;orthogonalLoop=1;jettySize=auto;html=1;" edge="1" parent="1" source="5OsI7P8gQhSzynUjOokk-5" target="5OsI7P8gQhSzynUjOokk-2">
          <mxGeometry relative="1" as="geometry" />
        </mxCell>
        <mxCell id="5OsI7P8gQhSzynUjOokk-5" value="&lt;span style=&quot;font-size: 14px;&quot;&gt;文心百亿模型&lt;br&gt;Fine tuning&lt;br&gt;&lt;/span&gt;" style="rounded=1;whiteSpace=wrap;html=1;fillColor=#dae8fc;strokeColor=#6c8ebf;" vertex="1" parent="1">
          <mxGeometry x="350" y="153" width="120" height="60" as="geometry" />
        </mxCell>
        <mxCell id="5OsI7P8gQhSzynUjOokk-8" value="&lt;span style=&quot;font-size: 14px;&quot;&gt;轻浮层文案&lt;/span&gt;" style="rounded=1;whiteSpace=wrap;html=1;fillColor=#ffe6cc;strokeColor=#d79b00;" vertex="1" parent="1">
          <mxGeometry x="550" y="263" width="120" height="60" as="geometry" />
        </mxCell>
        <mxCell id="5OsI7P8gQhSzynUjOokk-11" value="构造微调样本&lt;br&gt;" style="text;html=1;align=center;verticalAlign=middle;resizable=0;points=[];autosize=1;strokeColor=none;fillColor=none;" vertex="1" parent="1">
          <mxGeometry x="320" y="109" width="90" height="26" as="geometry" />
        </mxCell>
        <mxCell id="5OsI7P8gQhSzynUjOokk-13" value="全网络更新&lt;br&gt;" style="text;html=1;align=center;verticalAlign=middle;resizable=0;points=[];autosize=1;strokeColor=none;fillColor=none;" vertex="1" parent="1">
          <mxGeometry x="324" y="216" width="78" height="26" as="geometry" />
        </mxCell>
      </root>
    </mxGraphModel>
  </diagram>
</mxfile>
